<svg width="74" height="56" viewBox="0 0 74 56" fill="none" xmlns="http://www.w3.org/2000/svg">
<path d="M30.8327 44.7754C31.1012 44.9098 30.5642 45.0439 30.43 45.4468C30.2956 45.8494 30.6985 45.9838 30.5642 46.1179C30.43 46.1179 30.0271 46.3867 29.893 46.6552C29.7586 46.9237 30.1615 47.3263 30.0271 47.3263C30.0271 47.4607 29.7586 47.5948 29.6245 47.8633C29.5113 48.0896 29.6842 48.5067 29.7413 48.6322L29.7586 48.6689C29.6245 48.8032 29.2216 48.4004 28.9531 48.4004C28.6846 48.4004 28.4161 48.6689 28.4161 48.6689C28.282 48.8032 28.0132 48.4004 27.7447 48.4004C27.3421 48.4004 27.0736 48.8032 26.9392 48.9374C26.8051 48.9374 26.8051 48.5347 26.4022 48.5347C25.9995 48.5347 25.731 49.0718 25.731 48.8032C25.5967 48.6689 25.8652 47.8633 26.5366 47.4607C26.9869 47.1228 27.4373 47.0683 27.5709 47.0595L27.6106 47.0578L27.4762 46.3867C27.7351 46.516 28.119 46.271 28.1461 46.0126L28.1476 45.9838L28.6846 46.2523L28.6962 46.2132C28.7384 46.0826 28.9056 45.6503 29.356 45.3124C29.8279 44.8405 30.5072 44.7833 30.756 44.7763L30.8327 44.7754ZM54.8883 5.67063C55.6563 5.6169 55.9181 5.6706 56.4141 6.02367L56.4727 6.092C56.483 6.10558 56.4853 6.11397 56.4835 6.12918L56.4742 6.17997L56.4092 6.56397C56.4121 6.62421 56.4401 6.65282 56.4766 6.67992L56.8341 6.93918C57.078 7.11215 57.3494 7.28952 57.4375 7.27435C57.4556 7.2712 57.4726 7.27179 57.488 7.27017L57.5097 7.26533L57.9655 6.99525C57.9945 6.98225 57.9971 6.98302 58.0176 6.99086C58.4023 7.19901 58.7615 7.53258 58.9632 7.87555C58.9805 7.90501 58.9816 7.91028 58.9742 7.92778L58.9688 7.94004L58.7052 8.36338L58.692 8.37832C58.6805 8.39217 58.6709 8.40973 58.6878 8.43245C58.7684 8.56835 58.9635 8.82784 59.0895 8.93747L59.1194 8.9616C59.1379 8.97847 59.1451 8.97893 59.1539 8.97622L59.17 8.97141L59.5167 8.82802C59.5384 8.82121 59.5498 8.82817 59.5891 8.86524C60.0488 9.32679 60.2181 10.0325 60.2495 10.5104L60.2528 10.5715C60.2551 10.5855 60.2544 10.5895 60.2431 10.5957L59.917 10.7622C59.9026 10.7679 59.8923 10.7796 59.8885 10.8122C59.8815 10.8678 59.8977 11.0052 59.9193 11.1583L59.95 11.3132C59.9685 11.404 59.9917 11.4968 60.0318 11.5622C60.0403 11.5759 60.0446 11.5813 60.0526 11.583L60.0621 11.5838L60.4171 11.552C60.4372 11.5506 60.4376 11.5557 60.4524 11.5895C60.5888 11.9873 60.5675 12.4497 60.4817 12.8729L60.4587 12.9797C60.4573 12.9842 60.4554 12.9862 60.4506 12.987L60.4093 12.9873L60.1133 13.0018C60.0626 13.0017 60.0514 13.0138 60.0426 13.0374L59.9953 13.1852C59.9658 13.2805 59.9292 13.4037 59.889 13.5493L59.8379 13.7341C59.7811 13.9349 59.6984 14.2137 59.6242 14.4549L59.3889 15.2103C59.0861 16.1971 59.0241 16.5013 59.0241 16.8466C59.075 17.6241 59.3437 17.7412 60.0329 17.7479L60.1405 17.7555C60.4172 17.7796 60.4018 17.8297 60.2163 18.1033C59.519 18.889 58.1723 18.8393 57.5742 18.336C57.0395 17.8089 56.8506 16.51 57.1905 14.1684C58.0313 8.36716 51.399 8.98462 51.3206 13.2301C51.2659 14.6762 51.0555 16.0078 50.7123 17.2262C52.8123 19.8899 54.1233 23.2096 54.3061 26.8453C55.0806 27.3862 56.3447 27.0454 56.1607 25.4229L56.1512 25.3471C56.0181 24.3822 56.0998 23.8481 56.3213 23.6327C56.569 23.4272 57.1235 23.4107 57.4082 23.7361L57.4357 23.7783C57.4897 23.8651 57.4708 23.8745 57.3319 23.8819L57.2586 23.8834C57.0285 23.8935 56.9348 23.9592 56.9138 24.25L56.9143 24.2885C56.9186 24.4297 56.9548 24.5813 57.0942 25.0398L57.1348 25.1727C57.1646 25.2705 57.2022 25.3989 57.2297 25.4973L57.2766 25.6688C57.2913 25.7211 57.304 25.7636 57.3135 25.7942L57.32 25.8149C57.3237 25.8258 57.3256 25.8326 57.3389 25.8349L57.4729 25.8427L57.4899 25.8429C57.4939 25.8436 57.493 25.8462 57.4953 25.8553C57.5351 26.0387 57.5477 26.2438 57.4865 26.4183L57.4796 26.4316C57.4776 26.4337 57.4751 26.4338 57.4701 26.4332L57.3259 26.4193C57.3195 26.4193 57.318 26.4206 57.3134 26.4283C57.2866 26.4709 57.2776 26.5429 57.2658 26.594L57.2576 26.6538C57.2529 26.6909 57.2503 26.7211 57.2522 26.7363C57.2532 26.7454 57.2554 26.7505 57.2585 26.7536L57.2638 26.7572L57.393 26.8245C57.399 26.8272 57.4012 26.8285 57.4017 26.8311L57.4015 26.8366C57.3915 27.0329 57.3221 27.3402 57.1232 27.537C57.1059 27.5532 57.1017 27.5553 57.0916 27.5514L56.9511 27.492L56.9418 27.4895C56.9405 27.4895 56.939 27.4898 56.9372 27.4907L56.9303 27.4959C56.8794 27.5326 56.7874 27.6521 56.7509 27.7125C56.7436 27.7223 56.7483 27.7298 56.7533 27.7357L56.7581 27.741L56.8652 27.916C56.8704 27.9278 56.8714 27.9281 56.8627 27.9427C56.7789 28.0833 56.6299 28.2194 56.4711 28.304C56.4654 28.3062 56.463 28.3071 56.4585 28.3058L56.4495 28.3022L56.2627 28.1896C56.2542 28.1863 56.2442 28.1876 56.2329 28.1858C56.1942 28.1788 56.0681 28.2621 55.9623 28.3369L55.8519 28.4163C55.834 28.429 55.8176 28.4378 55.8108 28.4578L55.8077 28.4751L55.837 28.655C55.8381 28.6669 55.8325 28.6686 55.8079 28.6976C55.6029 28.8415 55.495 28.8628 55.1789 28.8384L55.161 28.8359C55.1595 28.8354 55.1586 28.8349 55.1577 28.8341L55.1517 28.8266L55.0841 28.6657L55.0778 28.6534C55.0728 28.645 55.0649 28.6401 55.0273 28.6313C54.938 28.6146 54.8277 28.6054 54.7167 28.6107L54.6501 28.6156C54.6391 28.6168 54.6232 28.6169 54.6122 28.6226L54.6031 28.6303L54.4913 28.8158C54.49 28.8179 54.4875 28.8199 54.4826 28.8194C54.4265 28.8174 54.3625 28.811 54.2955 28.7994C54.1477 31.2263 53.5023 33.5381 52.4486 35.6459C51.1058 36.4514 51.1058 34.706 48.6893 34.706C48.4208 34.706 48.1523 36.4514 45.8698 35.78C44.6614 35.3774 46.2727 38.331 42.379 37.2569C39.0225 36.1829 42.2449 39.0024 37.5459 37.5254C35.5661 36.9975 35.9216 37.8969 33.7659 37.9275L33.6287 37.9276C33.2576 37.9128 29.1358 37.6719 30.6985 38.0625C30.6985 38.331 35.5319 37.794 37.0086 38.868C37.68 39.2709 39.5595 38.4653 40.9023 39.405C43.3189 41.1504 43.3189 36.5855 45.8698 40.3449C46.8097 41.4189 47.8838 39.405 49.2263 39.942C46.8795 42.1869 43.9123 43.7338 40.6194 44.347C40.72 44.8945 40.6498 45.4351 40.4008 45.8646C39.5752 47.1506 37.8544 46.4656 38.1183 45.2248C38.1366 45.1634 38.1797 45.0773 38.2252 45.037C38.2342 45.029 38.244 45.0223 38.253 45.0172C38.3778 44.946 38.2933 45.074 38.2943 45.2304L38.2973 45.3362C38.3118 45.7031 38.3705 45.8459 38.6882 46.0049C39.824 46.3064 40.1455 45.332 39.7845 44.4814C39.0085 44.587 38.2162 44.6413 37.4115 44.6413C30.6636 44.6413 24.8157 40.7653 22.0539 35.1008C21.4288 34.8518 20.946 34.4448 20.8445 34.3578C20.8199 34.3391 20.8024 34.3463 20.7893 34.3557L20.4694 34.6186C20.4365 34.6346 20.4155 34.641 20.3476 34.6271C19.931 34.5418 19.3564 34.0454 19.1211 33.7599C19.1017 33.7157 19.0938 33.7509 19.1123 33.6844C19.1479 33.5803 19.2541 33.4803 19.3055 33.3576L19.324 33.3031C19.3303 33.2879 19.3343 33.2784 19.3241 33.2609C19.2676 33.1882 19.1919 33.116 19.1202 33.0564C19.0197 32.9796 18.876 32.8437 18.8007 32.7542L18.6743 32.6039C18.6686 32.598 18.6626 32.5916 18.6452 32.5978L18.229 32.7337C18.2061 32.7404 18.2014 32.7417 18.1793 32.7273C17.8479 32.5004 17.4756 32.1437 17.2756 31.7193C17.2717 31.71 17.2718 31.7098 17.2753 31.6995L17.4884 31.2668C17.4983 31.2466 17.5059 31.2337 17.5005 31.2215L17.4939 31.2123C17.2816 30.952 17.1109 30.6519 16.9397 30.3649C16.9384 30.3605 16.9326 30.3593 16.9248 30.3594L16.511 30.3999L16.4837 30.4007C16.4624 30.4009 16.4551 30.3964 16.4291 30.3605C16.1883 30.006 16.1434 29.5142 16.1054 29.082C16.1073 29.0691 16.1029 29.0386 16.1048 29.028C16.1093 29.0018 16.1199 28.999 16.1424 28.9841L16.575 28.8596C16.5832 28.8572 16.5837 28.8542 16.5858 28.8369C16.6015 28.5869 16.5507 28.4255 16.4562 28.2097L16.4425 28.1873C16.434 28.1751 16.4248 28.1683 16.4037 28.166L15.9184 28.1542C15.9034 28.1539 15.9004 28.1519 15.8954 28.1457C15.6839 27.6495 15.6131 27.4221 15.6032 26.9111C15.6012 26.8934 15.6112 26.8793 15.626 26.8672L16.1359 26.4917L16.152 26.4769C16.1622 26.4659 16.1697 26.4511 16.1652 26.4239L16.0098 25.7577C15.9066 25.32 15.802 24.8903 15.6815 24.4391C14.9699 20.0489 8.24175 20.0321 9.82961 24.0048C10.2953 24.7078 10.6384 24.7505 11.6053 24.6528C11.9435 24.614 12.1979 24.398 12.077 24.6862C12.0683 24.7069 12.0559 24.7299 12.0411 24.7514C11.966 24.8603 11.7914 24.9756 11.6639 25.0315C9.0531 25.9265 7.12342 22.3899 9.68377 20.27C11.9887 18.5313 16.3439 19.3455 18.4092 22.8966C18.4531 22.9864 18.5366 23.1365 18.6067 23.2524L18.6358 23.2997C18.7103 23.4188 18.858 23.7072 18.9642 23.9407C19.3966 24.9245 19.8799 25.9177 20.4725 26.8275C20.4859 26.7237 20.4948 26.62 20.4948 26.5161C21.3004 26.7847 22.3744 25.845 23.18 26.2476C24.3883 26.6505 26.8051 26.919 27.8791 26.382C29.356 25.5764 30.5642 27.8587 31.3699 26.6505C34.055 23.0255 33.9206 27.4561 36.4716 25.7106C37.68 24.7708 39.6939 25.5764 40.2309 25.1736C41.842 24.2338 46.5412 24.6366 46.6753 24.5023L46.7585 24.4704C47.9733 23.9761 43.7218 24.2338 43.7218 24.2338C41.3049 24.2338 41.842 23.294 39.6939 23.9653C34.9949 25.3079 38.3514 22.6227 34.8605 23.5625C31.1012 24.6366 32.7125 21.6829 31.3699 22.0856C29.2216 22.7569 28.819 21.0116 28.5505 21.0116C25.5967 21.1458 26.268 24.0995 23.3143 20.3403C23.0457 20.0717 22.643 20.0717 22.2402 20.206C24.9254 14.5671 30.6985 10.8079 37.4115 10.8079C40.8762 10.8079 44.0855 11.8297 46.7567 13.5908C46.8482 12.9462 46.9031 12.3111 47.0695 11.6579C47.0813 11.5978 47.1147 11.5096 47.1111 11.4656C47.1082 11.4299 47.0955 11.4053 47.0783 11.3853L47.0646 11.3711L46.6047 10.81C46.5692 10.7683 46.5191 10.7074 46.5474 10.636C46.8266 9.88568 47.1497 9.45266 47.5065 9.08407L47.5976 8.99126C47.631 8.95975 47.648 8.96086 47.7409 8.97989L47.8491 9.00179C48.1191 9.05412 48.2943 9.12854 48.411 9.13046C48.4675 9.13059 48.4745 9.12828 48.5079 9.09611C48.6536 8.93192 48.9621 8.69977 48.9899 8.47384C48.9899 8.44506 48.9383 8.31911 48.875 8.19393C48.8118 8.06874 48.7751 7.97629 48.7766 7.93883C48.779 7.88094 49.1534 7.53281 49.6224 7.1994L49.7281 7.12568L49.918 6.99574L50.0763 7.07874C50.1488 7.11676 50.251 7.17867 50.3246 7.22843L50.3648 7.25654C50.53 7.37689 50.6361 7.36644 50.797 7.25554C51.0658 7.0812 51.2919 6.9681 51.5439 6.83335C51.5968 6.80441 51.6349 6.77051 51.6569 6.71544L51.6665 6.68607L51.675 6.14646C51.6767 6.1339 51.6803 6.12667 51.6912 6.11857L51.7048 6.10995C52.1454 5.83641 52.767 5.71708 53.1966 5.70473C53.2045 5.70413 53.2097 5.70614 53.2133 5.70897L53.2177 5.71359L53.4857 6.16607C53.5002 6.18808 53.5302 6.19518 53.5591 6.19868L53.5997 6.20266C53.9214 6.23796 54.2555 6.21805 54.5168 6.17113C54.6213 6.14735 54.6311 6.13538 54.6445 6.10862L54.655 6.08829L54.822 5.69902L54.8358 5.68154C54.8418 5.67554 54.8506 5.67431 54.8883 5.67063ZM19.4207 39.6735C19.555 39.5394 20.2263 39.2709 21.0318 39.5394C21.636 39.6601 21.9139 40.1071 21.9635 40.1953L21.9717 40.2105L22.3744 39.8079C22.3744 39.9368 22.871 40.0661 23.1479 39.9563L23.18 39.942V40.6134L23.2156 40.5977C23.3458 40.5444 23.8188 40.3856 24.3883 40.6134C25.0596 40.7478 25.5967 41.4189 25.5967 41.5533L25.617 41.5756C25.6755 41.6523 25.3004 41.4282 24.9254 41.5533C24.5226 41.6874 24.5226 42.0903 24.5226 42.0903C24.3883 41.9559 23.9856 41.8218 23.5828 41.8218C23.3143 41.9559 23.18 42.3588 23.0457 42.3588L23.0184 42.347C22.9434 42.3174 22.7261 42.25 22.5087 42.3588C22.2402 42.3588 21.9717 42.8958 21.8374 42.8958C21.7031 42.7615 21.8374 42.2244 21.7031 42.0903C21.4346 41.8218 21.1661 41.8218 21.0318 41.8218C20.8976 41.6874 21.1661 41.2848 20.8976 41.0163C20.6546 40.7734 20.3018 40.7502 20.1374 40.748L20.0921 40.7478C19.9578 40.7478 20.3606 40.3449 20.0921 40.0764C19.8235 39.6735 19.2865 39.8079 19.4207 39.6735ZM61.6521 27.3242C61.7865 27.3242 61.3836 27.4586 61.2495 27.7271C61.1151 28.1298 61.3836 28.2641 61.3836 28.3983C61.2495 28.3983 60.8466 28.5326 60.7125 28.8012C60.5781 28.9353 60.8466 29.3382 60.7125 29.3382C60.7125 29.4725 60.444 29.4725 60.3096 29.7411C60.1755 30.0096 60.444 30.4122 60.3096 30.4122C60.1755 30.5466 59.907 30.1437 59.6384 30.1437C59.5041 30.0096 59.2356 30.2781 59.2356 30.2781C59.1012 30.2781 58.9671 29.8752 58.6985 30.0096C58.2957 30.0096 58.0271 30.2781 58.0271 30.2781C57.893 30.2781 57.893 30.0096 57.4901 29.8752C57.2216 29.8752 56.9531 30.2781 56.9531 30.1437C56.9531 29.8752 57.2216 29.3382 57.7586 29.0697C58.2957 28.6668 58.6985 28.8012 58.6985 28.8012V28.2641C58.8327 28.3983 59.2356 28.1298 59.2356 27.9956L59.307 28.0416C59.429 28.1184 59.6737 28.2641 59.7726 28.2641L59.785 28.2324C59.8285 28.1298 59.9965 27.7941 60.444 27.4586C60.981 27.1901 61.518 27.1901 61.6521 27.3242ZM22.8142 12.0764C23.0828 12.2106 23.217 12.4792 23.217 12.4792L23.3513 12.2106C23.4856 12.3449 23.7541 12.3449 23.7541 12.3449V12.6134L23.7777 12.6034C23.8515 12.5748 24.0926 12.5025 24.4254 12.6134C24.6939 12.7477 24.9624 13.0162 24.9624 13.0162C24.9624 13.1505 24.8282 13.0162 24.5596 13.0162C24.4254 13.1505 24.4254 13.2847 24.4254 13.2847C24.2911 13.2847 24.1569 13.1505 24.0226 13.2847C23.8883 13.2847 23.7541 13.5532 23.7541 13.419H23.4856L23.217 13.6875C23.0828 13.6875 23.0828 13.419 23.0828 13.2847C22.9754 13.1773 22.868 13.1558 22.8293 13.1515L22.8142 13.1505C22.68 13.1505 22.8142 13.0162 22.68 12.8819C22.5457 12.7477 22.4115 12.7477 22.2772 12.7477C22.2772 12.6134 22.4115 12.4792 22.2772 12.3449C22.143 12.2106 22.0087 12.2106 22.0087 12.2106C22.143 12.0764 22.4115 12.0764 22.8142 12.0764Z" fill="#635776" fill-opacity="0.4"/>
</svg>
