<svg width="137" height="40" viewBox="0 0 137 40" fill="none" xmlns="http://www.w3.org/2000/svg">
<path fill-rule="evenodd" clip-rule="evenodd" d="M112.984 13.3553V0L109.332 0.864682V6.08158L104.497 7.22619V2.0093L100.845 2.87398V16.2292L104.497 15.3646V10.1477L109.332 9.00304V14.2199L112.984 13.3553ZM98.3033 8.48394L94.5985 9.36106C94.4934 8.17302 93.692 7.54109 92.2863 7.8739C90.447 8.30935 89.4485 9.92822 89.4485 12.2497C89.4485 14.7017 90.4798 15.7096 92.26 15.2881C93.6 14.9709 94.4146 14.0672 94.5985 12.8825L98.3033 12.0314C98.1194 14.3443 96.1225 17.5299 92.1812 18.463C88.4763 19.3401 85.6912 17.5802 85.6912 13.1393C85.6912 8.67885 88.5552 5.60102 92.1812 4.74256C95.5707 3.94009 98.0143 5.23964 98.3033 8.48394ZM84.1217 6.83328V9.75474L80.0753 10.7127V21.1465L76.4755 21.9988V11.565L72.4291 12.523V9.60151L84.1217 6.83328ZM70.1764 23.4901V10.1348L66.5242 10.9995V24.3548L70.1764 23.4901ZM61.8017 20.4907C63.2337 19.4669 64.0876 17.9671 64.0876 16.1151C64.0876 13.2719 62.0841 12.0507 59.0953 12.7583L53.2885 14.1331V27.4883L56.9407 26.6237V22.2154L58.2019 21.9168L60.5667 25.7652L64.5343 24.8259L61.8017 20.4907ZM44.0202 29.6826C48.1192 28.7122 50.7204 25.5922 50.7204 21.4187C50.7204 17.2452 48.1192 15.3569 43.9677 16.3398L38.844 17.5529V30.9081L44.0202 29.6826ZM113 31.3324V16.7947L76.3897 25.4622L76.3895 32.1461C74.4904 31.3698 73.2499 29.167 74.6505 25.6002L74.7483 25.3481C75.8938 22.3555 76.0239 20.5651 75.4569 19.6844C74.7771 18.7918 72.8962 18.288 71.6602 19.1548C71.3111 19.4745 71.2728 19.5396 71.6522 19.6619L71.8036 19.7079C72.7724 19.9398 73.1131 20.1893 72.9334 21.2864C72.8273 21.7427 72.654 22.1294 71.9957 23.2621L71.1697 24.6658C71.0482 24.8757 70.926 25.09 70.8258 25.2691L70.6274 25.6296C70.5181 25.8279 70.4237 25.991 70.3526 26.1107L70.2643 26.2558C70.2452 26.2826 70.2241 26.2936 70.1567 26.278L69.7347 26.2025L69.7157 26.1982L69.702 26.1948C69.6822 26.19 69.6738 26.1879 69.6683 26.1911C69.6643 26.1934 69.6619 26.1986 69.6578 26.2076L69.6578 26.2076L69.6578 26.2077C69.6554 26.2128 69.6525 26.2193 69.6483 26.2271L69.5727 26.3893C69.3278 26.9371 69.1608 27.5524 69.2224 28.1313L69.2246 28.1427C69.2313 28.179 69.2331 28.1885 69.2515 28.1931L69.7702 28.2652C69.7918 28.2699 69.7961 28.2759 69.806 28.305C69.84 28.4047 69.8438 28.5344 69.8411 28.6615L69.834 28.9026C69.815 29.1224 69.7932 29.3186 69.7657 29.3936C69.7496 29.4377 69.7313 29.4505 69.7093 29.4538L69.193 29.5809C69.1779 29.5857 69.1759 29.5915 69.1744 29.6105L69.1536 29.7329C69.0498 30.4078 69.0686 31.4203 69.5578 32.196C69.6136 32.2784 69.6207 32.2771 69.6813 32.266L69.6887 32.2647L70.1824 32.1837C70.1896 32.184 70.1955 32.1834 70.2007 32.1828C70.2174 32.181 70.2269 32.18 70.2505 32.2137L70.3009 32.2793C70.4411 32.481 70.6207 32.8815 70.6878 33.0885C70.7014 33.1195 70.6901 33.1395 70.6738 33.1544L70.6406 33.1788L70.1328 33.6821L70.1279 33.6884C70.1053 33.718 70.1029 33.7212 70.1198 33.7735C70.2928 34.3152 70.6912 34.8948 71.1656 35.3083C71.192 35.3258 71.1954 35.3277 71.2406 35.319L71.9697 35.0908C71.9802 35.0893 71.9909 35.0897 72.0019 35.0911L72.0746 35.1016C72.2074 35.1091 72.5489 35.4642 72.8428 35.792L73.2495 36.2544C73.2846 36.2986 73.3068 36.3455 73.2931 36.4208L73.0776 36.9335L73.0712 36.948L73.0626 36.9671L73.0625 36.9672C73.0424 37.0115 73.0369 37.0236 73.0504 37.0542L73.1119 37.1701C73.6962 37.8208 74.0477 37.98 75.1469 38.1533C75.199 38.1601 75.2128 38.1614 75.2231 38.1558L75.2493 38.1352L75.6103 37.6481C75.6173 37.6407 75.6229 37.6339 75.6281 37.6277C75.658 37.5917 75.6702 37.577 75.8321 37.5777C76.003 37.5862 76.1926 37.6069 76.3894 37.6408L76.3897 40L113 31.3324ZM24.6956 23.824V20.9025L15 23.198V36.5532L24.6693 34.264V31.3425L18.6523 32.7671V30.4717L24.1964 29.1591V26.2376L18.6523 27.5502V25.2548L24.6956 23.824ZM82.9265 27.8279L80.6288 28.3719V34.7713L81.6014 34.541V32.1193L82.9863 31.7915L84.2957 33.9031L85.4036 33.6408L83.9746 31.3887C84.7647 30.9111 85.1581 30.1649 85.1581 29.3056C85.1581 28.1276 84.4216 27.4739 82.9265 27.8279ZM31.0472 29.8325V19.3987L27.395 20.2634V33.6187L36.4862 31.4663V28.5448L31.0472 29.8325ZM89.7628 26.2094L88.6391 26.4754L86.3193 33.424L87.3517 33.1796L87.9435 31.3459L90.4615 30.7497L91.0501 32.304L92.0825 32.0595L89.7628 26.2094ZM93.4735 25.3308L95.6264 24.8211C97.5244 24.3718 98.6607 25.3026 98.6607 27.2931C98.6607 29.2929 97.5244 30.7711 95.5603 31.2361L93.4735 31.7302V25.3308ZM84.1792 29.5373C84.1792 30.2591 83.7826 30.7717 82.8352 30.996L81.6014 31.2882V28.9696L82.8226 28.6805C83.7826 28.4532 84.1792 28.8124 84.1792 29.5373ZM97.7038 27.5196C97.7038 29.0351 96.9767 30.0572 95.5068 30.4052L94.4461 30.6563V25.9442L95.5666 25.6789C96.9767 25.3451 97.7038 26.0104 97.7038 27.5196ZM90.1782 30.0044L89.2277 27.4984L89.1773 27.5103L88.2267 30.4664L90.1782 30.0044ZM101.304 23.4768L100.332 23.7071V30.1065L101.304 29.8762V23.4768ZM102.976 26.2809C102.976 24.2342 104.206 22.7023 105.881 22.3059C107.549 21.9109 108.783 22.8593 108.783 24.906C108.783 26.9527 107.549 28.4853 105.881 28.8803C104.206 29.2767 102.976 28.3245 102.976 26.2809ZM107.82 25.134C107.82 26.6933 106.989 27.7368 105.881 27.9991C104.77 28.2622 103.942 27.6113 103.942 26.0521C103.942 24.4929 104.77 23.4501 105.881 23.1871C106.989 22.9248 107.82 23.5748 107.82 25.134ZM43.7838 19.4613L42.4963 19.7661V26.9655L43.8889 26.6358C45.8858 26.163 47.0419 25.0807 47.0419 22.2896C47.0419 19.4986 45.8858 18.9637 43.7838 19.4613ZM56.9407 16.1638L58.2282 15.859C59.5091 15.5557 60.2776 15.8694 60.2776 17.0171C60.2776 18.1583 59.5091 18.7902 58.2282 19.0935L56.9407 19.3983V16.1638Z" fill="#635776"/>
</svg>
