<svg width="11" height="27" viewBox="0 0 11 27" fill="none" xmlns="http://www.w3.org/2000/svg">
<path d="M8.7659 26.5436C8.74833 26.5403 8.74126 26.529 8.73793 26.5191L8.49817 25.6027C8.47747 25.5349 8.39465 25.5124 8.34391 25.4904C7.88601 25.2945 7.39128 25.1917 6.99411 25.1673C6.79756 25.1661 6.81382 25.1922 6.76414 25.2575L6.38981 25.8815C6.35331 25.9141 6.3737 25.9192 6.28362 25.9047C5.1438 25.6827 4.7793 25.4788 4.17349 24.6451C4.08567 24.4347 4.0849 24.4929 4.13791 24.3419L4.36139 23.6851C4.38269 23.5405 4.3201 23.4776 4.25464 23.3854C3.95625 22.9652 3.29814 22.0091 3.09784 21.9951C3.05631 21.9922 3.02156 21.9754 2.98911 21.9812L2.23302 22.2736C2.18621 22.2848 2.18263 22.2823 2.1553 22.2598C1.66338 21.7302 1.25022 20.9876 1.07085 20.2937C1.05217 20.2221 1.05626 20.2223 1.08427 20.1765L1.61084 19.5318C1.63487 19.5093 1.68339 19.4824 1.65981 19.4161C1.58159 19.1178 1.35555 18.5057 1.20637 18.2954C1.17432 18.2388 1.16729 18.2586 1.13577 18.257L0.62377 18.3607C0.553845 18.3763 0.548179 18.3824 0.488046 18.2726C-0.0509073 17.2168 -0.0391927 15.8185 0.0904808 14.9603C0.092566 14.928 0.0956711 14.9254 0.130335 14.9161L0.645184 14.7597C0.667961 14.7554 0.686945 14.739 0.703674 14.6825C0.73214 14.5864 0.754767 14.3351 0.774498 14.0534C0.775957 13.8205 0.804135 13.5007 0.74544 13.2879C0.735156 13.2506 0.730754 13.243 0.708353 13.2369L0.220958 13.153C0.147512 13.1409 0.153892 13.1535 0.140334 13.0654C0.0700484 12.2496 0.286524 11.3774 0.581944 10.6259C0.608371 10.5641 0.587467 10.5717 0.671558 10.5944L1.10906 10.6911C1.19641 10.716 1.20883 10.6878 1.23586 10.6334C1.32066 10.462 1.47633 10.1372 1.66692 9.70267C1.83644 9.31615 2.1806 8.57329 2.43172 8.05188C3.60832 5.60889 3.85193 5.02114 3.98838 4.29621C4.17471 2.89082 3.82138 2.57111 2.81682 2.27403C2.26152 2.07358 2.26357 2.02324 2.6681 1.5655C3.94983 0.455026 5.90015 1.10041 6.60506 2.24398C7.20936 3.4036 7.05006 5.79427 5.76888 9.82278C3.84562 15.8739 6.72496 18.8606 9.63307 18.5973C11.5217 18.4262 9.39743 26.6993 8.7659 26.5436Z" fill="#D8D8D8"/>
</svg>
